<svg width="34" height="9" viewBox="0 0 34 9" fill="none" xmlns="http://www.w3.org/2000/svg">
<g clip-path="url(#clip0_5566_6052)">
<path d="M0.380005 6.01998C0.640005 6.59998 1.03 7.10998 1.52 7.51998L8.27001 3.97998L0.380005 6.01998Z" fill="#333333"/>
<path d="M1.63 7.61025C3.48 9.06025 6.16 8.74025 7.61 6.89025C7.99 6.41025 8.26 5.85025 8.4 5.26025L1.63 7.61025Z" fill="#1686CB"/>
<path d="M6.52998 0.660197C4.53998 -0.599803 1.90998 0.000196815 0.659981 1.9902C0.209981 2.7002 -0.0200188 3.5302 -1.87764e-05 4.3702L7.00998 1.0102C6.85998 0.880197 6.69998 0.760197 6.52998 0.660197Z" fill="#EF5B24"/>
<path d="M7.49 2.13037L0 4.45037C0.02 4.97037 0.14 5.48037 0.35 5.96037L7.49 2.13037Z" fill="#333333"/>
<path d="M9.38 4.92996V1.20996H10.43C10.43 1.20996 10.36 2.09996 10.22 3.84996C10.22 3.92996 10.21 3.97996 10.21 3.98996C10.21 3.98996 10.82 3.94996 12 3.85996V4.91996H9.38V4.92996ZM12.56 2.31996C12.67 2.31996 12.75 2.31996 12.81 2.31996H13.15C13.16 2.43996 13.23 2.99996 13.34 3.97996L14.11 3.82996L13.95 2.30996C14.08 2.30996 14.17 2.30996 14.24 2.30996H14.87V4.90996H14.23L14.21 4.72996C13.13 4.84996 12.58 4.90996 12.56 4.90996V4.60996C12.56 3.94996 12.56 3.17996 12.56 2.30996V2.31996ZM17.74 2.29996V2.65996C17.74 3.29996 17.74 4.04996 17.74 4.92996C17.57 4.92996 17.43 4.92996 17.34 4.92996H17.15C17.12 4.65996 17.05 4.09996 16.96 3.23996L16.19 3.38996L16.35 4.92996C16.1 4.92996 15.89 4.92996 15.72 4.92996H15.43V2.29996H16.07L16.09 2.47996C17.17 2.35996 17.72 2.29996 17.74 2.29996ZM18.31 2.89996V2.31996H20.47C20.47 3.21996 20.47 3.80996 20.47 4.07996C20.47 4.07996 20.52 4.07996 20.6 4.05996V4.91996H19.83L19.81 4.74996L18.3 4.91996V3.16996L19.65 3.02996C19.63 2.88996 19.62 2.80996 19.62 2.78996L18.3 2.88996L18.31 2.89996ZM18.99 3.68996L18.97 4.18996L19.75 4.05996L19.7 3.63996C19.63 3.63996 19.4 3.65996 18.99 3.68996ZM21.17 4.92996V2.32996H21.85C21.85 2.32996 21.86 2.44996 21.88 2.66996L23.47 2.45996V3.14996C22.51 3.38996 22.02 3.50996 21.98 3.51996L22.13 4.92996H21.18H21.17ZM24.03 4.92996V1.20996H25.08C25.08 1.20996 25.01 2.09996 24.87 3.84996C24.87 3.92996 24.86 3.97996 24.86 3.98996C24.86 3.98996 25.47 3.94996 26.65 3.85996V4.91996H24.03V4.92996ZM27.29 1.51996H28.16C28.15 1.65996 28.13 1.83996 28.1 2.04996H27.35C27.35 2.04996 27.35 2.00996 27.33 1.91996C27.33 1.91996 27.31 1.73996 27.29 1.51996ZM27.21 4.92996L27.34 2.30996H28.09L28.25 4.92996H27.2H27.21ZM31.13 2.29996V2.65996C31.13 3.29996 31.13 4.04996 31.13 4.92996C30.96 4.92996 30.82 4.92996 30.73 4.92996H30.54C30.51 4.65996 30.44 4.09996 30.35 3.23996L29.58 3.38996L29.74 4.92996C29.49 4.92996 29.28 4.92996 29.11 4.92996H28.82V2.29996H29.46L29.48 2.47996C30.56 2.35996 31.11 2.29996 31.12 2.29996H31.13ZM31.7 4.91996V1.52996H32.43C32.43 1.52996 32.46 1.95996 32.51 2.78996L33.03 2.30996H33.99C33.52 2.83996 33.27 3.12996 33.24 3.15996C33.72 4.28996 33.97 4.87996 33.99 4.91996H33.15C33.15 4.91996 32.98 4.52996 32.68 3.81996C32.63 3.87996 32.6 3.90996 32.59 3.92996L32.66 4.91996H31.69H31.7Z" fill="#1686CB"/>
<path d="M17.9999 6.47021H10.0699V6.61022H17.9999V6.47021Z" fill="#1686CB"/>
<path d="M33.3 6.47021H25.37V6.61022H33.3V6.47021Z" fill="#1686CB"/>
<path d="M19.7499 5.80002C19.8499 5.80002 19.9099 5.80002 19.9099 5.82002C19.9099 5.82002 19.9099 5.83002 19.9099 5.84002C19.9099 5.84002 19.8999 5.95002 19.8999 6.03002V7.06002C19.8999 7.14002 19.8999 7.19002 19.8599 7.21002C19.8599 7.21002 19.7699 7.25002 19.6399 7.26002C19.6399 7.20002 19.6099 7.15002 19.5799 7.10002C19.7199 7.13002 19.7899 7.11002 19.7799 7.05002V6.03002C19.7799 5.96002 19.7799 5.89002 19.7699 5.83002V5.80002H19.7499ZM18.4799 5.95002L18.5699 5.83002C18.6499 5.87002 18.7299 5.93002 18.8099 5.99002L18.7199 6.10002C18.6599 6.05002 18.5799 6.00002 18.4699 5.94002L18.4799 5.95002ZM18.9999 5.90002H19.2499C19.3099 5.90002 19.3699 5.90002 19.4099 5.89002C19.4099 5.89002 19.3999 5.99002 19.3999 6.07002V6.61002C19.3999 6.68002 19.3999 6.74002 19.4099 6.79002V6.81002H19.2699C19.2699 6.81002 19.2799 6.71002 19.2799 6.60002V6.02002H18.9499V6.62002C18.9499 6.74002 18.9499 6.81002 18.9599 6.84002H18.8199V6.81002C18.8199 6.75002 18.8299 6.70002 18.8299 6.64002V6.06002C18.8299 5.98002 18.8299 5.92002 18.8299 5.89002C18.8299 5.89002 18.9199 5.90002 18.9999 5.90002ZM19.5099 5.97002C19.6099 5.97002 19.6599 5.97002 19.6499 5.98002C19.6499 5.98002 19.6499 5.99002 19.6499 6.00002C19.6499 6.00002 19.6399 6.05002 19.6399 6.08002V6.68002C19.6399 6.75002 19.6399 6.81002 19.6499 6.86002L19.5099 6.87002V6.84002C19.5099 6.78002 19.5199 6.73002 19.5199 6.68002V6.07002C19.5199 6.07002 19.5199 6.01002 19.5099 5.98002C19.5099 5.98002 19.5099 5.98002 19.5099 5.97002ZM19.0499 6.61002V6.14002C19.1399 6.14002 19.1899 6.15002 19.1999 6.17002C19.1999 6.17002 19.1999 6.17002 19.1999 6.18002C19.1999 6.18002 19.1799 6.21002 19.1799 6.22002C19.1799 6.58002 19.1699 6.81002 19.1299 6.90002C19.0999 7.01002 18.9999 7.13002 18.8299 7.26002C18.8299 7.26002 18.7499 7.19002 18.7099 7.16002C18.9599 7.05002 19.0799 6.86002 19.0599 6.60002L19.0499 6.61002ZM18.4199 6.36002L18.5099 6.24002C18.5899 6.27002 18.6899 6.32002 18.7899 6.38002L18.6999 6.51002C18.6299 6.45002 18.5399 6.40002 18.4199 6.36002ZM18.5999 6.59002L18.7399 6.68002C18.6899 6.88002 18.6499 7.05002 18.6199 7.21002V7.26002C18.6199 7.26002 18.5199 7.21002 18.4599 7.16002C18.5099 7.04002 18.5599 6.86002 18.5999 6.60002V6.59002ZM19.1299 6.95002L19.2299 6.87002C19.3199 6.93002 19.3999 7.01002 19.4899 7.11002L19.3699 7.20002C19.2999 7.10002 19.2199 7.02002 19.1299 6.95002ZM21.0399 5.79002C21.1699 5.79002 21.2299 5.81002 21.2299 5.82002C21.2299 5.82002 21.2299 5.84002 21.2299 5.85002C21.2299 5.85002 21.2199 5.89002 21.2199 5.91002C21.2199 5.91002 21.2199 5.99002 21.2199 6.05002V6.15002H21.3199C21.4299 6.15002 21.5199 6.15002 21.5999 6.14002V6.29002C21.5299 6.29002 21.4299 6.29002 21.3099 6.28002H21.2199C21.2299 6.70002 21.3199 6.97002 21.4799 7.10002C21.4799 7.10002 21.5099 7.03002 21.5199 6.92002C21.5699 6.97002 21.6199 7.01002 21.6599 7.02002C21.6199 7.19002 21.5599 7.28002 21.4999 7.28002C21.2599 7.18002 21.1199 6.84002 21.0899 6.28002H20.8299C20.7399 6.28002 20.6499 6.28002 20.5499 6.29002V6.14002C20.6099 6.14002 20.6999 6.15002 20.8299 6.15002H21.0799C21.0799 6.15002 21.0799 6.10002 21.0799 6.05002C21.0799 5.89002 21.0799 5.80002 21.0499 5.78002L21.0399 5.79002ZM21.2799 5.92002L21.4199 5.87002C21.4199 5.87002 21.4299 5.88002 21.4399 5.90002C21.4899 5.97002 21.5199 6.01002 21.5299 6.04002L21.3799 6.10002C21.3499 6.03002 21.3199 5.98002 21.2799 5.93002V5.92002ZM20.1799 5.96002L20.3199 5.89002C20.3999 5.99002 20.4599 6.07002 20.4999 6.13002L20.3499 6.22002C20.2999 6.12002 20.2399 6.03002 20.1799 5.96002ZM20.4199 6.36002C20.4199 6.36002 20.4199 6.41002 20.4199 6.48002C20.4199 6.54002 20.4199 6.58002 20.4199 6.59002V7.04002C20.4199 7.04002 20.4399 7.01002 20.4499 6.99002C20.4899 6.94002 20.5299 6.89002 20.5599 6.85002L20.6299 6.98002C20.4899 7.12002 20.3899 7.22002 20.3299 7.28002L20.2299 7.16002C20.2299 7.16002 20.2699 7.09002 20.2699 7.02002V6.49002C20.1999 6.49002 20.1299 6.49002 20.0699 6.50002V6.35002C20.1299 6.35002 20.2399 6.35002 20.3999 6.35002C20.3999 6.35002 20.4099 6.35002 20.3999 6.36002H20.4199ZM21.0199 6.46002V6.60002H20.8999V6.98002C20.8999 6.98002 21.0199 6.96002 21.1199 6.94002V7.07002C20.9699 7.11002 20.8099 7.14002 20.6299 7.17002L20.5999 7.03002C20.5999 7.03002 20.6299 7.03002 20.6599 7.03002C20.7199 7.03002 20.7599 7.03002 20.7699 7.02002V6.61002H20.7499C20.6799 6.61002 20.6299 6.61002 20.5999 6.61002V6.47002C20.5999 6.47002 20.6499 6.47002 20.6999 6.47002H20.8199C20.9099 6.47002 20.9699 6.47002 21.0099 6.46002H21.0199ZM21.9699 6.01002V5.87002C21.9699 5.87002 22.0699 5.88002 22.1899 5.88002H22.9099C23.0099 5.88002 23.0799 5.88002 23.1199 5.87002V6.01002C23.1199 6.01002 23.0499 6.00002 22.9099 6.00002H22.6199V6.62002H23.0299C23.1199 6.62002 23.1899 6.62002 23.2599 6.61002V6.76002C23.1999 6.75002 23.1199 6.74002 23.0199 6.74002H22.6199V7.06002C22.6199 7.14002 22.6199 7.21002 22.6299 7.28002H22.4599C22.4599 7.22002 22.4699 7.15002 22.4699 7.06002V6.75002H22.0399C21.9399 6.75002 21.8599 6.75002 21.8099 6.76002V6.61002C21.8699 6.61002 21.9499 6.62002 22.0299 6.62002H22.4699V6.00002H22.1699C22.0599 6.00002 21.9899 6.00002 21.9499 6.01002H21.9699ZM22.9499 6.13002L23.0899 6.20002C23.0199 6.34002 22.9499 6.46002 22.8899 6.55002C22.8899 6.55002 22.8199 6.49002 22.7699 6.46002C22.8499 6.36002 22.9099 6.25002 22.9499 6.13002ZM22.0399 6.20002L22.1799 6.13002C22.2099 6.24002 22.2599 6.35002 22.3299 6.45002L22.1899 6.52002C22.1399 6.42002 22.0899 6.32002 22.0499 6.20002H22.0399ZM24.1099 5.77002C24.2499 5.81002 24.3099 5.84002 24.3099 5.86002C24.3099 5.86002 24.3099 5.88002 24.2799 5.89002C24.2799 5.89002 24.2299 5.92002 24.2099 5.93002C24.0899 6.06002 23.9499 6.20002 23.7999 6.34002C23.9699 6.34002 24.2299 6.32002 24.5999 6.30002C24.5499 6.25002 24.4699 6.18002 24.3599 6.09002L24.4899 5.99002C24.5999 6.09002 24.7499 6.24002 24.9299 6.42002L24.7899 6.54002C24.7899 6.54002 24.7899 6.54002 24.7899 6.53002C24.7899 6.53002 24.7399 6.45002 24.7099 6.41002C24.1399 6.46002 23.7699 6.49002 23.6099 6.50002L23.5599 6.34002C23.6399 6.34002 23.7399 6.28002 23.8399 6.16002C23.9599 6.03002 24.0599 5.90002 24.1199 5.77002H24.1099ZM24.7599 6.63002V6.66002C24.7599 6.71002 24.7599 6.76002 24.7599 6.80002V7.10002C24.7599 7.10002 24.7599 7.15002 24.7599 7.19002V7.28002H24.5999V7.17002H23.8299V7.29002H23.6699C23.6699 7.21002 23.6799 7.15002 23.6799 7.11002V6.79002C23.6799 6.73002 23.6799 6.67002 23.6799 6.63002H23.6899C23.6899 6.63002 23.7899 6.63002 23.8499 6.63002H24.5599C24.6299 6.63002 24.6999 6.63002 24.7599 6.63002ZM24.6099 7.06002V6.76002H23.8299V7.06002H24.6099Z" fill="#1686CB"/>
</g>
<defs>
<clipPath id="clip0_5566_6052">
<rect width="34" height="8.51" fill="white"/>
</clipPath>
</defs>
</svg>
