<svg width="48" height="48" viewBox="0 0 48 48" fill="none" xmlns="http://www.w3.org/2000/svg">
<path d="M4.87988 32.6798C6.16188 35.5397 8.08487 38.0543 10.5009 40.076L43.7835 22.6211L4.87988 32.6798Z" fill="#333333"/>
<path d="M11.0432 40.5223C20.1651 47.6719 33.3795 46.0941 40.5291 36.9722C42.4028 34.6054 43.7341 31.8442 44.4244 28.9351L11.0432 40.5223Z" fill="#1686CB"/>
<path d="M35.2037 6.25286C25.3915 0.0401122 12.4237 2.99856 6.26022 12.8108C4.04138 16.3116 2.90731 20.4041 3.00593 24.5459L37.5705 7.97862C36.8309 7.33762 36.042 6.74593 35.2037 6.25286Z" fill="#EF5B24"/>
<path d="M39.9373 13.5024L3.00598 24.9418C3.1046 27.5058 3.69629 30.0205 4.73174 32.3872L39.9373 13.5024Z" fill="#333333"/>
</svg>
